<svg version="1.2" xmlns="http://www.w3.org/2000/svg" viewBox="0 0 320 320" width="320" height="320">
	<style>
		tspan { white-space:pre } 
		.s0 { fill: none;stroke: #4091cf;stroke-miterlimit:100;stroke-width: 16 } 
		.s1 { opacity: .99;fill: #4091cf;stroke: #4091cf;stroke-miterlimit:100;stroke-width: 11 } 
		.s2 { fill: #4091cf;stroke: #4091cf;stroke-miterlimit:100;stroke-width: 11 } 
		.s3 { fill: #3f90cf } 
		.s4 { fill: #ffffff } 
	</style>
	<path id="Hình dạng 1 copy" fill-rule="evenodd" class="s0" d="m269.59 198.98l-160.85 91.42c-29.67 16.86-66.46-4.72-66.22-38.84l1.26-185.01c0.23-34.12 37.31-55.19 66.74-37.93l159.6 93.6c29.43 17.26 29.14 59.9-0.53 76.76z"/>
	<path id="Hình dạng 2" fill-rule="evenodd" class="s1" d="m101.4 93h97.68c4.69 0 8.5 3.81 8.5 8.5 0 4.69-3.81 8.5-8.5 8.5h-97.68c-4.69 0-8.5-3.81-8.5-8.5 0-4.69 3.81-8.5 8.5-8.5z"/>
	<path id="Hình dạng 6" class="s2" d=""/>
	<path id="Hình dạng 2 copy" fill-rule="evenodd" class="s2" d="m101.4 207h97.68c4.69 0 8.5 3.81 8.5 8.5 0 4.69-3.81 8.5-8.5 8.5h-97.68c-4.69 0-8.5-3.81-8.5-8.5 0-4.69 3.81-8.5 8.5-8.5z"/>
	<path id="Hình dạng 2 copy 2" fill-rule="evenodd" class="s2" d="m101.4 149h97.68c4.69 0 8.5 3.81 8.5 8.5 0 4.69-3.81 8.5-8.5 8.5h-97.68c-4.69 0-8.5-3.81-8.5-8.5 0-4.69 3.81-8.5 8.5-8.5z"/>
	<path id="Hình dạng 11" fill-rule="evenodd" class="s3" d="m201.52 219.95l-13.52 24.18c-15.16 27.11-33.58-7.4-33.15-62.13l0.39-48.8c0.42-54.73 19.38-88.62 34.11-61.01l13.14 24.63c14.73 27.61 14.19 96.02-0.97 123.13z"/>
	<path id="Hình dạng 16" class="s3" d=""/>
	<path id="Hình dạng 17" fill-rule="evenodd" class="s3" d="m276.81 197.32l-50.78 24.14c-20.12 9.55-43.81-13.16-43.82-39.35l-0.04-57.15c-0.01-23.6 21.59-38.2 40.52-26.03l50.22 32.31c25.35 16.31 28.19 54.54 3.9 66.08z"/>
	<path id="Hình dạng 12" class="s3" d=""/>
	<path id="Hình dạng 13" class="s3" d=""/>
	<path id="Hình dạng 14" class="s3" d=""/>
	<path id="Hình dạng 15" fill-rule="evenodd" class="s3" d="m217.99 96l-52.5 30.31v-60.62z"/>
	<path id="Hình dạng 15 copy" fill-rule="evenodd" class="s3" d="m218.99 222l-52.5 30.31v-60.62z"/>
	<path id="Hình dạng 10" class="s4" d=""/>
	<path id="Hình dạng 9" fill-rule="evenodd" class="s4" d="m169.8 178.79l59.61-48.38c2.33-1.89 5.75-1.53 7.64 0.8 1.89 2.33 1.54 5.75-0.79 7.64l-59.61 48.38c-2.33 1.89-5.75 1.53-7.64-0.8-1.9-2.33-1.54-5.75 0.79-7.64z"/>
	<path id="Hình dạng 7" fill-rule="evenodd" class="s4" d="m201 104c3.31 0 6 2.69 6 6v98c0 3.31-2.69 6-6 6-3.31 0-6-2.69-6-6v-98c0-3.31 2.69-6 6-6z"/>
	<path id="Hình dạng 8" fill-rule="evenodd" class="s4" d="m205.23 104.69l32.89 23.71c2.36 1.7 2.89 4.98 1.19 7.33-1.69 2.36-4.98 2.89-7.33 1.19l-32.89-23.7c-2.35-1.7-2.89-4.98-1.19-7.34 1.7-2.35 4.98-2.88 7.33-1.19z"/>
	<path id="Hình dạng 9 copy" fill-rule="evenodd" class="s4" d="m168.11 138.5l63.9 55.52c2.59 2.25 6.39 2.22 8.49-0.08 2.11-2.3 1.71-6-0.9-8.25l-64.5-55.55c-2.44-2.1-5.97-1.92-7.89 0.4-1.92 2.3-1.51 5.86 0.9 7.96z"/>
	<path id="Hình dạng 8 copy" fill-rule="evenodd" class="s4" d="m203.91 216.51l36.14-21.69c2.66-1.59 3.26-5.1 1.33-7.81-1.92-2.71-5.62-3.6-8.26-1.99l-35.86 21.86c-2.5 1.52-3.04 4.9-1.22 7.55 1.83 2.65 5.35 3.59 7.87 2.08z"/>
</svg>