<svg version="1.2" xmlns="http://www.w3.org/2000/svg" viewBox="0 0 1024 412" width="1024" height="412">
	<style>
		.s0 { fill: #4091cf } 
		.s1 { fill: none;stroke: #4091cf;stroke-miterlimit:100;stroke-width: 16 } 
		.s2 { opacity: .99;fill: #4091cf;stroke: #4091cf;stroke-miterlimit:100;stroke-width: 11 } 
		.s3 { fill: #4091cf;stroke: #4091cf;stroke-miterlimit:100;stroke-width: 11 } 
		.s4 { fill: #3f90cf } 
		.s5 { fill: #ffffff } 
	</style>
	<path id="Sync" class="s0" aria-label="Sync"  d="m457 318.3q-7.5 0-12.9-0.3-5.4-0.3-6.9-0.6-7.8-1.7-11.1-3.2-3.2-1.6-3.2-2.6 0-1.1 2-1.7 2-0.8 4.5-0.8 1.4 0 2.7 0.3 1.3 0.2 2.7 0.5 1.5 0.5 3.8 0.6 2.3 0.1 5.3 0.1 6 0 13.7-0.5 7.7-0.8 15.5-2.2 7.9-1.3 14.7-3 6.7-1.8 10.8-3.8 4.2-2.2 4.2-4.5 0-1.1-1.2-2.3-2.5-2.4-6-4.1-3.5-1.6-8.7-3.6-5.1-2.1-12.7-5.2-7.3-3.3-17.5-8.7-6.3-3.5-11-7.1-4.6-3.6-4.6-8.1 0-2.4 1.5-4.9 1.6-2.7 5.3-5.7 8.5-7.2 18.8-11.4 10.4-4.2 21-6 10.7-1.8 20-1.8 10.7 0 18.3 1.8 7.8 1.6 9.9 4.2 1.5 1.7 1.5 5.2 0 3.6-1.4 7.8-1.3 4.1-3.3 7.1-1.7 3-3.4 3.1-3.8 0.2-4.8-1.9-1-2.3-1-5.6 0-1.8 0.1-3.7 0.1-2 0.1-3.8 0-3-0.7-5.2-0.6-2.3-3-3.3-4.2-1.8-10.8-1.8-7.2 0-15.5 2.1-8.1 2.1-14.5 6-2.7 1.7-6.1 4.8-3.4 3-5.9 7-2.6 3.9-2.6 8.4 0 4 2.6 8.1 2.7 4.2 9.2 8.3 5.3 3.3 11.5 6 6.3 2.7 12 5.1 5.8 2.2 10 4.3 4.2 2.2 5.6 4.4 2 3 2 5.8 0 4.1-4 7-3.9 2.8-10.4 4.7-6.5 1.8-14.6 2.9-7.9 0.9-16.2 1.4-8.1 0.4-15.3 0.4zm92 23.4q-1 0-1-1.1 0-0.9 0.7-2.5 0.8-1.8 1.8-4 3.5-6.8 6.7-12.7 3.5-5.8 6.9-11.2-6.9-4.1-12.2-9.3-5.3-5.3-9-10.2-3.7-5-5.6-8.4-1.8-3.4-1.8-3.8 0-0.7 1.4-1.1 1.5-0.5 3.2-0.7 2-0.1 3.4-0.1 1.5 0 1.5 0 2.5 11.4 8.6 19.2 6.4 7.6 12.6 11.3 6.3-10 10.5-20.2 4.4-10.3 8.6-23.4 0-0.4 1.2-0.4 1.5 0 4.2 0.8 2.8 0.7 5.5 2 2.9 1.2 4.5 2.9 1.8 1.5 1.4 3-2.7 7.8-7.6 16.8-5 8.8-11.1 17.5-6 8.6-12.2 15.9-6.2 7.4-11.2 12.4-5 4.9-7.9 6.2-2.1 1.1-3.1 1.1zm70.9-25.8q-0.7 0-2.2-0.8-1.5-0.9-2.8-2.2-1.2-1.5-1.2-3 0-4.2 1.3-10.4 1.5-6.3 4-13.1 2.4-7.1 5-13.1 1.2-2.6 3.4-3.4 2.1-1.1 4.5-1.1 3.4 0 6.4 1.8 3 1.8 3 4.6 0 1.5-1.1 3-0.7 1.1-1.7 3-1.1 1.8-1.9 3.3-0.9 1.9-0.4 1.9 0.2 0 1.5-1.4 3-2.9 8.1-5.9 5.2-3.1 10.8-5.2 5.5-2.3 9.6-2.3 6 0 9.8 3.5 3.8 3.3 5.6 8.5 1.9 5.3 1.9 10.8 0 10-4.5 15.8-0.7 0.9-2.5 2.5-1.8 1.7-2.6 1.7-0.5 0-0.5-0.6 0-0.3 0-0.6 0.1-0.3 0.3-0.8 1.2-3.3 1.8-7.2 0.7-3.8 0.7-7.8 0-4.9-1.5-9.3-1.3-4.3-4.7-7-3.4-2.7-9.2-2.7-9.2 0-15.9 5.7-6.6 5.7-13.2 15.9-5.1 7.8-7.7 11.9-2.5 4-4.1 4zm100.6-1q-3.5 0-7.4-1.1-3.9-1.1-7-2.6-3-1.5-4.2-2.7-4.9-5.6-4.9-13.9 0-10.4 7.5-21.6 9-13.1 24.7-13.1 6.9 0 11.4 1.7 4.6 1.6 7.4 4 2.6 2.4 3.7 4.7 1.2 2.2 1.2 3.3 0 3.3-2.9 3.3-3.1 0-3.1-1 0-0.4 0.1-0.8 0.4-0.6 0.4-1.1 0-0.7-1.3-1.9-1-1.4-1.9-2-3.3-2.5-8.2-2.5-4.3 0-8.9 2.4-4.5 2.4-8.9 8.1-4.9 6.4-7.3 12.3-2.4 5.8-2.4 10.3 0 5.4 3.3 8 3.4 2.5 12.7 2.5 4.5 0 10.1-1 5.7-1.2 11.5-3.6 8.3-3.5 15.8-9.6 2.1-1.6 3-1.6 0.9 0 0.9 1 0 1.6-1.8 3.3-6 6-17.1 10.7-11.1 4.5-26.4 4.5z"/>
	<path id="Hình dạng 1 copy" fill-rule="evenodd" class="s1" d="m261.59 245.98l-160.85 91.42c-29.67 16.86-66.46-4.72-66.22-38.84l1.26-185.01c0.23-34.12 37.31-55.19 66.74-37.93l159.6 93.6c29.43 17.26 29.14 59.9-0.53 76.76z"/>
	<path id="Hình dạng 2" fill-rule="evenodd" class="s2" d="m93.4 140h97.68c4.69 0 8.5 3.81 8.5 8.5 0 4.69-3.81 8.5-8.5 8.5h-97.68c-4.69 0-8.5-3.81-8.5-8.5 0-4.69 3.81-8.5 8.5-8.5z"/>
	<path id="Hình dạng 6" class="s3" d=""/>
	<path id="Hình dạng 2 copy" fill-rule="evenodd" class="s3" d="m93.4 254h97.68c4.69 0 8.5 3.81 8.5 8.5 0 4.69-3.81 8.5-8.5 8.5h-97.68c-4.69 0-8.5-3.81-8.5-8.5 0-4.69 3.81-8.5 8.5-8.5z"/>
	<path id="Hình dạng 2 copy 2" fill-rule="evenodd" class="s3" d="m93.4 196h97.68c4.69 0 8.5 3.81 8.5 8.5 0 4.69-3.81 8.5-8.5 8.5h-97.68c-4.69 0-8.5-3.81-8.5-8.5 0-4.69 3.81-8.5 8.5-8.5z"/>
	<path id="Hình dạng 1" fill-rule="evenodd" class="s1" d="m380.59 247.98l-160.85 91.42c-29.67 16.86-66.46-4.72-66.22-38.84l1.26-185.01c0.23-34.12 37.31-55.19 66.74-37.93l159.6 93.6c29.43 17.26 29.14 59.9-0.53 76.76z"/>
	<path id="Hình dạng 11" fill-rule="evenodd" class="s4" d="m255.02 252.83l-29.92 16.83c-33.54 18.87-74.94-5.64-74.51-44.13l0.38-34.32c0.43-38.49 42.36-62.08 75.48-42.47l29.53 17.49c33.12 19.62 32.58 67.72-0.96 86.6z"/>
	<path id="Hình dạng 12" class="s4" d=""/>
	<path id="Hình dạng 13" class="s4" d=""/>
	<path id="Hình dạng 14" class="s4" d=""/>
	<path id="Hình dạng 15" fill-rule="evenodd" class="s4" d="m209.99 143l-52.5 30.31v-60.62z"/>
	<path id="Hình dạng 15 copy" fill-rule="evenodd" class="s4" d="m210.99 269l-52.5 30.31v-60.62z"/>
	<path id="PIANO" class="s0" aria-label="PIANO"  d="m528.6 97.7q4.7 9.5 4.7 21.2 0 11.7-4.7 21.3-4.7 9.3-12.1 14.9-7.2 5.6-15.3 8.7-8.1 2.8-15.6 2.8h-22.5v20.4q0 4.1-0.4 6.3-0.2 2-1.6 4.7-1.5 2.7-4.9 3.7-3.4 1.1-9.2 1.1-4.6 0-7.7-0.9-3.1-0.9-4.7-2.1-1.6-1.3-2.5-3.6-0.7-2.6-0.9-4.2 0-1.8 0-5.2v-99.9q0-4.1 0.2-6.1 0.3-2.2 1.8-4.9 1.4-2.7 4.8-3.8 3.5-1 9.2-1h38.5q7.6 0 15.5 3 8.1 2.9 15.3 8.5 7.4 5.6 12.1 15.1zm-27 21.1q0-7.8-5.2-11.7-5.3-4.2-10.8-4.2h-22.5v31.9h22.6q5.4 0 10.7-4 5.2-3.9 5.2-12zm43.6 68.2v-100.1q0-4.1 0.2-6.1 0.3-2.2 1.8-4.9 1.4-2.7 4.8-3.8 3.5-1 9.2-1 4.7 0 7.8 0.9 3 0.9 4.6 2.1 1.7 1.3 2.4 3.8 0.9 2.3 0.9 4.1 0.2 1.7 0.2 5.1v100.1q0 4.3-0.4 6.3-0.2 1.9-1.6 4.6-1.5 2.7-4.9 3.8-3.4 1.1-9.2 1.1-4.6 0-7.7-0.9-3.1-0.9-4.7-2.2-1.6-1.2-2.5-3.6-0.7-2.5-0.9-4.1 0-1.8 0-5.2zm122.1-106.6l48.6 100.5q3.1 6.1 3.1 9.1 0 6.5-10.4 11.7-6.2 3.1-10.3 3.1-2.9 0-5.2-1.6-2.2-1.6-3.3-3.4-0.9-1.8-2.7-5.4l-9.3-19.5h-49.9l-9.3 19.5q-1.8 3.6-2.9 5.2-0.9 1.6-3.3 3.4-2.1 1.6-5 1.6-4.1 0-10.3-3-10.4-5.1-10.4-11.6 0-3 3.1-9.1 0 0 48.6-100.7 1.9-4.1 5.9-6.6 4.1-2.5 8.6-2.5 9.8 0 14.4 9.3zm-2.5 67.9l-12-24.7-11.9 24.7zm163.9-77.1q4.5 0 7.6 0.9 3.2 0.9 4.6 2.2 1.7 1.3 2.4 3.8 0.9 2.3 0.9 4.1 0.2 1.6 0.2 5.1v99.9q0 4.3-0.4 6.3-0.2 1.9-1.6 4.6-1.5 2.7-4.9 3.8-3.4 1.1-9.2 1.1-7 0-9.7-1.1-2.7-1.1-4.5-3.4-40.5-54-53.3-70.6v59.3q0 4.3-0.3 6.3-0.2 1.9-1.6 4.6-1.5 2.7-4.9 3.8-3.4 1.1-9.2 1.1-5.6 0-9-1.1-3.2-1.1-4.7-3.8-1.4-2.7-1.8-4.8-0.1-2.2-0.1-6.3v-100.5q0-4.1 0.3-6.1 0.4-2 1.6-4.5 1.5-2.5 4.9-3.6 3.4-1.1 9.2-1.1 5 0 8.1 1.1 3.2 0.9 4.5 2.2 1.2 1.1 3.2 3.6l0.9 1.1q38 51.6 50.8 68.2v-60.9q0-4.1 0.3-6.1 0.4-2 1.7-4.5 1.4-2.5 4.8-3.6 3.4-1.1 9.2-1.1zm91.4-1.8q26.6 0 46.2 19.3 19.7 19.3 19.7 48.8 0 27.5-18.8 47.7-18.7 20-45.5 20-27.9 0-47.2-19.8-19-19.8-19-47.2 0-14.9 5.4-27.9 5.4-13.1 14.4-22 9-8.8 20.7-13.8 11.7-5.1 24.1-5.1zm0.5 103.9q13 0 23.2-9.7 10.3-9.7 10.3-26.3 0-16.2-10.4-26.1-10.3-9.9-22.9-9.9-13 0-23.2 10.1-10.3 9.9-10.3 26.1 0 15.8 10.3 25.9 10.4 9.9 23 9.9z"/>
	<path id="Hình dạng 10" class="s5" d=""/>
	<path id="Hình dạng 9" fill-rule="evenodd" class="s5" d="m161.8 225.79l59.61-48.38c2.33-1.89 5.75-1.53 7.64 0.8 1.89 2.33 1.54 5.75-0.79 7.64l-59.61 48.38c-2.33 1.89-5.75 1.53-7.64-0.8-1.9-2.33-1.54-5.75 0.79-7.64z"/>
	<path id="Hình dạng 7" fill-rule="evenodd" class="s5" d="m193 151c3.31 0 6 2.69 6 6v98c0 3.31-2.69 6-6 6-3.31 0-6-2.69-6-6v-98c0-3.31 2.69-6 6-6z"/>
	<path id="Hình dạng 8" fill-rule="evenodd" class="s5" d="m197.23 151.69l32.89 23.71c2.36 1.7 2.89 4.98 1.19 7.33-1.69 2.36-4.98 2.89-7.33 1.19l-32.89-23.7c-2.35-1.7-2.89-4.98-1.19-7.34 1.7-2.35 4.98-2.88 7.33-1.19z"/>
	<path id="Hình dạng 9 copy" fill-rule="evenodd" class="s5" d="m160.11 185.5l63.9 55.52c2.59 2.25 6.39 2.22 8.49-0.08 2.11-2.3 1.71-6-0.9-8.25l-64.5-55.55c-2.44-2.1-5.97-1.92-7.89 0.4-1.92 2.3-1.51 5.86 0.9 7.96z"/>
	<path id="Hình dạng 8 copy" fill-rule="evenodd" class="s5" d="m195.91 263.51l36.14-21.69c2.66-1.59 3.26-5.1 1.33-7.81-1.92-2.71-5.62-3.6-8.26-1.99l-35.86 21.86c-2.5 1.52-3.04 4.9-1.22 7.55 1.83 2.65 5.35 3.59 7.87 2.08z"/>
</svg>